<?xml version="1.0" standalone="no"?>
<!DOCTYPE svg PUBLIC "-//W3C//DTD SVG 20010904//EN"
 "http://www.w3.org/TR/2001/REC-SVG-20010904/DTD/svg10.dtd">
<svg version="1.0" xmlns="http://www.w3.org/2000/svg"
 width="700.000000pt" height="700.000000pt" viewBox="0 0 700.000000 700.000000"
 preserveAspectRatio="xMidYMid meet">
<metadata>
Created by potrace 1.11, written by Peter Selinger 2001-2013
</metadata>
<g transform="translate(0.000000,700.000000) scale(0.100000,-0.100000)"
fill="#000000" stroke="none">
<path d="M1298 4945 c-2 -2 -26 -7 -53 -11 -134 -17 -309 -72 -430 -132 -73
-37 -173 -96 -200 -120 -11 -9 -31 -24 -45 -33 -49 -32 -169 -147 -231 -222
-225 -268 -340 -596 -334 -947 2 -109 5 -153 20 -245 15 -93 75 -270 129 -382
126 -259 378 -513 639 -645 124 -62 300 -121 407 -135 19 -3 53 -9 75 -13 22
-5 474 -8 1004 -7 l965 2 0 593 c1 325 -1 592 -4 593 -3 1 -360 2 -795 3 -864
1 -821 -2 -900 61 -102 82 -120 244 -39 350 29 38 86 78 129 90 17 5 383 10
815 11 432 1 787 2 790 3 3 1 5 269 5 596 l0 596 -971 -1 c-535 -1 -974 -3
-976 -5z"/>
<path d="M3759 4948 c-4 -10 -3 -1188 1 -1189 3 -1 356 -2 785 -3 429 -1 796
-6 816 -10 53 -11 128 -73 158 -131 20 -39 26 -64 26 -115 0 -105 -47 -179
-147 -231 l-43 -23 -790 -1 c-435 0 -795 -4 -800 -7 -6 -4 -10 -213 -10 -595
l1 -588 959 -2 c528 -1 980 2 1005 7 25 4 65 11 89 14 133 18 376 111 488 186
24 17 47 30 50 30 16 0 180 140 255 218 204 214 347 511 384 797 10 80 12 320
3 370 -4 22 -10 60 -14 85 -7 49 -10 61 -51 190 -143 456 -535 826 -1004 951
-41 11 -93 22 -115 25 -22 3 -58 10 -80 14 -35 8 -1963 15 -1966 8z"/>
</g>
</svg>
