<?xml version="1.0" standalone="no"?>
<!DOCTYPE svg PUBLIC "-//W3C//DTD SVG 20010904//EN"
 "http://www.w3.org/TR/2001/REC-SVG-20010904/DTD/svg10.dtd">
<svg version="1.0" xmlns="http://www.w3.org/2000/svg"
 width="66.000000pt" height="29.000000pt" viewBox="0 0 66.000000 29.000000"
 preserveAspectRatio="xMidYMid meet">
<metadata>
Created by potrace 1.11, written by Peter Selinger 2001-2013
</metadata>
<g transform="translate(0.000000,29.000000) scale(0.100000,-0.100000)"
fill="#000000" stroke="none">
<path d="M117 279 c-49 -8 -81 -31 -101 -72 -21 -45 -20 -84 2 -126 30 -56 71
-71 187 -71 l101 0 -2 53 c-1 28 -2 54 -3 57 -1 3 -36 5 -78 5 -71 0 -78 2
-78 20 0 18 8 21 80 25 l80 5 1 53 c0 30 -4 52 -10 53 -61 4 -150 3 -179 -2z"/>
<path d="M373 282 c-21 -3 -23 -9 -23 -58 l0 -54 79 0 c81 0 102 -9 81 -35 -9
-11 -34 -15 -86 -15 l-74 0 0 -55 0 -55 98 0 c107 0 150 14 184 61 54 73 8
187 -81 205 -37 7 -143 11 -178 6z"/>
</g>
</svg>
