<?xml version="1.0" encoding="UTF-8"?>
<!DOCTYPE svg PUBLIC "-//W3C//DTD SVG 1.1//EN" "http://www.w3.org/Graphics/SVG/1.1/DTD/svg11.dtd">
<svg version="1.1" xmlns="http://www.w3.org/2000/svg" xmlns:xlink="http://www.w3.org/1999/xlink" x="0" y="0" width="41" height="17" viewBox="0, 0, 41, 17">
  <g id="Layer_1">
    <path d="M19,-0 L19,7 L9.813,7 C8.984,7 8.563,7.672 8.563,8.5 C8.563,9.328 8.984,10 9.813,10 L19,10 L19,17 L8.5,17 L8.5,16.999 C6.162,16.999 4.037,16.043 2.497,14.503 C0.957,12.963 0.001,10.839 0.001,8.501 L0,8.501 L0,8.5 L0.001,8.5 C0.001,6.162 0.957,4.037 2.497,2.497 C4.037,0.957 6.162,0.001 8.499,0.001 L8.499,-0 L19,-0 z" fill="#FFFFFF"/>
    <path d="M22,-0 L22,7 L31.188,7 C32.016,7 32.438,7.672 32.438,8.5 C32.438,9.328 32.016,10 31.188,10 L22,10 L22,17 L32.5,17 L32.5,16.999 C34.838,16.999 36.964,16.043 38.504,14.503 C40.043,12.963 40.999,10.839 40.999,8.501 L41,8.501 L41,8.5 L40.999,8.5 C40.999,6.162 40.043,4.037 38.503,2.497 C36.963,0.957 34.839,0.001 32.501,0.001 L32.501,-0 L22,-0 z" fill="#FFFFFF"/>
  </g>
</svg>
