<?xml version="1.0" encoding="UTF-8"?>
<!DOCTYPE svg PUBLIC "-//W3C//DTD SVG 1.1//EN" "http://www.w3.org/Graphics/SVG/1.1/DTD/svg11.dtd">
<svg version="1.1" xmlns="http://www.w3.org/2000/svg" xmlns:xlink="http://www.w3.org/1999/xlink" x="0" y="0" width="54" height="22" viewBox="0, 0, 54, 22">
  <g id="Layer_1">
    <path d="M25,0 L25,9 L13,9 C11.896,9 11,9.895 11,11 C11,12.105 11.896,13 13,13 L25,13 L25,22 L11,22 L11,21.999 C7.974,21.999 5.224,20.762 3.231,18.769 C1.238,16.776 0.001,14.027 0.001,11.001 L0,11.001 L0,11 L0.001,11 C0.001,7.974 1.238,5.224 3.231,3.231 C5.224,1.238 7.974,0.001 10.999,0.001 L10.999,0 L25,0 z" fill="#FFFFFF"/>
    <path d="M29,0 L29,9 L41,9 C42.105,9 43,9.896 43,11 C43,12.105 42.105,13 41,13 L29,13 L29,22 L43.001,22 L43.001,21.999 C46.026,21.999 48.776,20.762 50.769,18.769 C52.762,16.776 53.999,14.027 53.999,11.001 L54,11.001 L54,11 L53.999,11 C53.999,7.974 52.762,5.224 50.769,3.231 C48.776,1.238 46.026,0.001 43.001,0.001 L43.001,0 L29,0 z" fill="#FFFFFF"/>
  </g>
</svg>
